<svg width="572" height="572" viewBox="0 0 572 572" fill="none" xmlns="http://www.w3.org/2000/svg">
<path fill-rule="evenodd" clip-rule="evenodd" d="M238 16C238 7.16345 245.163 0 254 0H318C326.837 0 334 7.16345 334 16V34.4927C346.405 36.8459 358.494 40.0942 370.196 44.168L379.431 28.1731C383.849 20.5204 393.634 17.8984 401.287 22.3167L456.713 54.3167C464.365 58.735 466.987 68.5204 462.569 76.1731L453.301 92.2257C462.755 100.395 471.605 109.245 479.774 118.699L495.827 109.431C503.479 105.012 513.265 107.635 517.683 115.287L549.683 170.713C554.102 178.365 551.479 188.151 543.827 192.569L527.832 201.804C531.906 213.506 535.154 225.595 537.507 238H556C564.837 238 572 245.163 572 254V318C572 326.837 564.837 334 556 334H537.507C535.154 346.405 531.906 358.494 527.832 370.196L543.827 379.431C551.479 383.849 554.102 393.635 549.683 401.287L517.683 456.713C513.265 464.365 503.479 466.987 495.827 462.569L479.774 453.301C471.605 462.755 462.755 471.605 453.301 479.774L462.569 495.827C466.987 503.48 464.365 513.265 456.713 517.683L401.287 549.683C393.634 554.102 383.849 551.48 379.431 543.827L370.196 527.832C358.494 531.906 346.405 535.154 334 537.507V556C334 564.837 326.837 572 318 572H254C245.163 572 238 564.837 238 556V537.507C225.594 535.154 213.506 531.906 201.804 527.832L192.569 543.827C188.151 551.48 178.365 554.102 170.713 549.683L115.287 517.683C107.634 513.265 105.012 503.48 109.431 495.827L118.699 479.774C109.245 471.605 100.395 462.755 92.2257 453.301L76.1731 462.569C68.5204 466.987 58.735 464.365 54.3167 456.713L22.3167 401.287C17.8984 393.635 20.5204 383.849 28.1731 379.431L44.168 370.196C40.0942 358.494 36.8458 346.405 34.4926 334H16C7.16345 334 0 326.837 0 318V254C0 245.163 7.16345 238 16 238H34.4926C36.8459 225.595 40.0942 213.506 44.168 201.804L28.1731 192.569C20.5204 188.151 17.8984 178.365 22.3167 170.713L54.3167 115.287C58.735 107.635 68.5204 105.012 76.1731 109.431L92.2258 118.699C100.395 109.245 109.245 100.395 118.699 92.2258L109.431 76.1732C105.012 68.5205 107.634 58.735 115.287 54.3167L170.713 22.3167C178.365 17.8985 188.151 20.5205 192.569 28.1732L201.804 44.168C213.506 40.0943 225.594 36.8459 238 34.4927V16ZM286 478C392.039 478 478 392.039 478 286C478 179.961 392.039 94 286 94C179.961 94 93.9999 179.961 93.9999 286C93.9999 392.039 179.961 478 286 478Z" />
</svg>