<svg width="573" height="573" viewBox="0 0 573 573" fill="none" xmlns="http://www.w3.org/2000/svg">
<circle cx="286.401" cy="286.401" r="224" stroke="#27180D" stroke-width="64"/>
<rect x="238.401" y="0.400757" width="96" height="60" rx="16" fill="#27180D"/>
<rect x="238.401" y="512.401" width="96" height="60" rx="16" fill="#27180D"/>
<rect x="101.831" y="62.7175" width="96" height="60" rx="16" transform="rotate(-30 101.831 62.7175)" fill="#27180D"/>
<rect x="357.831" y="506.123" width="96" height="60" rx="16" transform="rotate(-30 357.831 506.123)" fill="#27180D"/>
<rect x="14.7175" y="184.97" width="96" height="60" rx="16" transform="rotate(-60 14.7175 184.97)" fill="#27180D"/>
<rect x="458.122" y="440.97" width="96" height="60" rx="16" transform="rotate(-60 458.122 440.97)" fill="#27180D"/>
<rect x="0.400757" y="334.401" width="96" height="60" rx="16" transform="rotate(-90 0.400757 334.401)" fill="#27180D"/>
<rect x="512.401" y="334.401" width="96" height="60" rx="16" transform="rotate(-90 512.401 334.401)" fill="#27180D"/>
<rect x="62.7175" y="470.97" width="96" height="60" rx="16" transform="rotate(-120 62.7175 470.97)" fill="#27180D"/>
<rect x="506.122" y="214.97" width="96" height="60" rx="16" transform="rotate(-120 506.122 214.97)" fill="#27180D"/>
<rect x="184.97" y="558.084" width="96" height="60" rx="16" transform="rotate(-150 184.97 558.084)" fill="#27180D"/>
<rect x="440.97" y="114.679" width="96" height="60" rx="16" transform="rotate(-150 440.97 114.679)" fill="#27180D"/>
</svg>
