<svg width="2388" height="112" viewBox="0 0 2388 112" fill="none" xmlns="http://www.w3.org/2000/svg">
<rect x="8" y="48" width="2084" height="16" fill="#261408"/>
<rect x="12" y="4" width="376" height="104" fill="#2C1B10"/>
<rect x="12" y="4" width="376" height="104" stroke="#1F1108" stroke-width="8"/>
<rect x="392" y="4" width="8" height="8" fill="#1F1108"/>
<rect x="394" y="2" width="4" height="12" fill="#2C1B10"/>
<rect x="395" y="2" width="2" height="12" fill="#442B1C"/>
<rect x="6" y="4" width="2" height="8" fill="#1F1108"/>
<rect width="1" height="12" transform="matrix(-1 0 0 1 6 2)" fill="#2C1B10"/>
<rect x="4" y="2" width="1" height="12" fill="#442B1C"/>
<rect x="6" y="100" width="2" height="8" fill="#1F1108"/>
<rect width="1" height="12" transform="matrix(-1 0 0 1 6 98)" fill="#2C1B10"/>
<rect x="4" y="98" width="1" height="12" fill="#442B1C"/>
<rect x="392" y="100" width="8" height="8" fill="#1F1108"/>
<rect x="394" y="98" width="4" height="12" fill="#2C1B10"/>
<rect x="395" y="98" width="2" height="12" fill="#442B1C"/>
<rect x="404" y="4" width="376" height="104" fill="#2C1B10"/>
<rect x="404" y="4" width="376" height="104" stroke="#1F1108" stroke-width="8"/>
<rect x="784" y="4" width="8" height="8" fill="#1F1108"/>
<rect x="786" y="2" width="4" height="12" fill="#2C1B10"/>
<rect x="787" y="2" width="2" height="12" fill="#442B1C"/>
<rect x="784" y="100" width="8" height="8" fill="#1F1108"/>
<rect x="786" y="98" width="4" height="12" fill="#2C1B10"/>
<rect x="787" y="98" width="2" height="12" fill="#442B1C"/>
<rect x="796" y="4" width="376" height="104" fill="#2C1B10"/>
<rect x="796" y="4" width="376" height="104" stroke="#1F1108" stroke-width="8"/>
<rect x="1176" y="4" width="8" height="8" fill="#1F1108"/>
<rect x="1178" y="2" width="4" height="12" fill="#2C1B10"/>
<rect x="1179" y="2" width="2" height="12" fill="#442B1C"/>
<rect x="1176" y="100" width="8" height="8" fill="#1F1108"/>
<rect x="1178" y="98" width="4" height="12" fill="#2C1B10"/>
<rect x="1179" y="98" width="2" height="12" fill="#442B1C"/>
<rect x="1188" y="4" width="376" height="104" fill="#2C1B10"/>
<rect x="1188" y="4" width="376" height="104" stroke="#1F1108" stroke-width="8"/>
<rect x="1568" y="4" width="8" height="8" fill="#1F1108"/>
<rect x="1570" y="2" width="4" height="12" fill="#2C1B10"/>
<rect x="1571" y="2" width="2" height="12" fill="#442B1C"/>
<rect x="1568" y="100" width="8" height="8" fill="#1F1108"/>
<rect x="1570" y="98" width="4" height="12" fill="#2C1B10"/>
<rect x="1571" y="98" width="2" height="12" fill="#442B1C"/>
<rect x="1580" y="4" width="376" height="104" fill="#2C1B10"/>
<rect x="1580" y="4" width="376" height="104" stroke="#1F1108" stroke-width="8"/>
<rect x="1960" y="4" width="8" height="8" fill="#1F1108"/>
<rect x="1962" y="2" width="4" height="12" fill="#2C1B10"/>
<rect x="1963" y="2" width="2" height="12" fill="#442B1C"/>
<rect x="1960" y="100" width="8" height="8" fill="#1F1108"/>
<rect x="1962" y="98" width="4" height="12" fill="#2C1B10"/>
<rect x="1963" y="98" width="2" height="12" fill="#442B1C"/>
<rect width="384" height="112" transform="translate(1968)" fill="#1F1108"/>
<rect x="1976" y="8" width="128" height="96" fill="#2C1B10"/>
<circle cx="2250" cy="56" r="28" fill="#2C1B10" stroke="#25170F" stroke-width="8"/>
<circle cx="2250" cy="56" r="4" fill="#3E2718"/>
<path d="M2388 56L2356 112V0L2388 56Z" fill="#2C1B10"/>
<rect x="2352" width="4" height="112" fill="#2C1B10"/>
<path d="M2368 56L2352 112V0L2368 56Z" fill="#1F1108"/>
</svg>
