<svg width="32" height="32" viewBox="0 0 32 32" fill="none" xmlns="http://www.w3.org/2000/svg">
<mask id="path-1-inside-1_41_17" fill="white">
<path fill-rule="evenodd" clip-rule="evenodd" d="M28 0H4C4 2.20914 2.20914 4 0 4V28C2.20914 28 4 29.7909 4 32H28C28 29.7909 29.7909 28 32 28V4C29.7909 4 28 2.20914 28 0Z"/>
</mask>
<path fill-rule="evenodd" clip-rule="evenodd" d="M28 0H4C4 2.20914 2.20914 4 0 4V28C2.20914 28 4 29.7909 4 32H28C28 29.7909 29.7909 28 32 28V4C29.7909 4 28 2.20914 28 0Z" fill="#563E2D"/>
<path d="M4 0V-2H2V0H4ZM28 0H30V-2H28V0ZM0 4V2H-2V4H0ZM0 28H-2V30H0V28ZM4 32H2V34H4V32ZM28 32V34H30V32H28ZM32 28V30H34V28H32ZM32 4H34V2H32V4ZM4 2H28V-2H4V2ZM2 0C2 1.10457 1.10457 2 0 2V6C3.31371 6 6 3.31371 6 0H2ZM2 28V4H-2V28H2ZM6 32C6 28.6863 3.31371 26 0 26V30C1.10457 30 2 30.8954 2 32H6ZM28 30H4V34H28V30ZM32 26C28.6863 26 26 28.6863 26 32H30C30 30.8954 30.8954 30 32 30V26ZM30 4V28H34V4H30ZM26 0C26 3.31371 28.6863 6 32 6V2C30.8954 2 30 1.10457 30 0H26Z" fill="#876E5D" mask="url(#path-1-inside-1_41_17)"/>
<circle cx="7" cy="7" r="1" fill="#876E5D"/>
<circle cx="25" cy="7" r="1" fill="#876E5D"/>
<circle cx="7" cy="25" r="1" fill="#876E5D"/>
<circle cx="25" cy="25" r="1" fill="#876E5D"/>
</svg>
